<svg xmlns="http://www.w3.org/2000/svg" viewBox="0 0 400 300">
<rect width="400" height="300" rx="10" fill="#F2F9FA"/>
<g stroke="#00747C" stroke-width="6" fill="#FFFFFF" stroke-linecap="round" stroke-linejoin="round">
<path d="M150 120 h70 v96 a14 14 0 0 1 -14 14 h-42 a14 14 0 0 1 -14 -14 z"/>
<path d="M150 160 h70 v56 a14 14 0 0 1 -14 14 h-42 a14 14 0 0 1 -14 -14 z" fill="#9ED9DE" stroke="none"/>
<path d="M150 120 h70 v96 a14 14 0 0 1 -14 14 h-42 a14 14 0 0 1 -14 -14 z" fill="none"/>
<rect x="163" y="86" width="44" height="30" rx="7" fill="#00747C"/>
<path d="M185 40 q14 22 0 34 q-14 -12 0 -34z" fill="#009BA5" stroke="none"/>
<rect x="262" y="140" width="46" height="76" rx="12"/>
<rect x="262" y="176" width="46" height="40" rx="12" fill="#E4F6F7" stroke="none"/>
<rect x="262" y="140" width="46" height="76" rx="12" fill="none"/>
<rect x="271" y="122" width="28" height="16" rx="5" fill="#009BA5"/>
</g>
</svg>
