<svg xmlns="http://www.w3.org/2000/svg" viewBox="0 0 400 300">
<rect width="400" height="300" rx="10" fill="#F2F9FA"/>
<g stroke="#00747C" stroke-width="6" fill="#FFFFFF" stroke-linecap="round" stroke-linejoin="round">
<path d="M120 95 h120 v115 a14 14 0 0 1 -14 14 h-92 a14 14 0 0 1 -14 -14 z"/>
<rect x="110" y="70" width="140" height="28" rx="9" fill="#00747C"/>
<path d="M135 150 q45 -26 90 0 v46 h-90 z" fill="#E4F6F7" stroke="none"/>
<path d="M275 205 h58 v14 a10 10 0 0 1 -10 10 h-38 a10 10 0 0 1 -10 -10 z" fill="#009BA5"/>
<line x1="304" y1="205" x2="304" y2="168"/>
<path d="M279 208 q25 -18 50 0" fill="#E4F6F7"/>
</g>
<g fill="#009BA5">
<circle cx="95" cy="135" r="5"/><circle cx="82" cy="160" r="4"/><circle cx="305" cy="120" r="5"/><circle cx="320" cy="145" r="4"/><circle cx="290" cy="95" r="4"/>
</g>
</svg>
