<svg xmlns="http://www.w3.org/2000/svg" viewBox="0 0 400 300">
<rect width="400" height="300" rx="10" fill="#F2F9FA"/>
<g stroke="#00747C" stroke-width="6" fill="#FFFFFF" stroke-linecap="round" stroke-linejoin="round">
<path d="M135 90 h80 q8 0 8 10 v110 q0 16 -16 16 h-64 q-16 0 -16 -16 v-110 q0 -10 8 -10z"/>
<rect x="127" y="72" width="96" height="20" rx="8" fill="#00747C"/>
<path d="M135 150 h88 v60 q0 16 -16 16 h-56 q-16 0 -16 -16z" fill="#9ED9DE" stroke="none"/>
<path d="M135 90 h80 q8 0 8 10 v110 q0 16 -16 16 h-64 q-16 0 -16 -16 v-110 q0 -10 8 -10z" fill="none"/>
<path d="M268 130 l40 0 -7 86 h-26 z"/>
<path d="M272 168 l32 0 -5 48 h-22 z" fill="#E4F6F7" stroke="none"/>
<path d="M268 130 l40 0 -7 86 h-26 z" fill="none"/>
<line x1="296" y1="128" x2="316" y2="92" stroke="#009BA5"/>
</g>
<g fill="#009BA5"><circle cx="160" cy="130" r="5"/><circle cx="185" cy="118" r="4"/><circle cx="200" cy="135" r="4"/></g>
</svg>
