<svg xmlns="http://www.w3.org/2000/svg" viewBox="0 0 520 440" role="img" aria-label="Laboratorio y producción Jisa Pharma">
<defs><linearGradient id="tg" x1="0" y1="0" x2="1" y2="1">
<stop offset="0" stop-color="#009BA5"/><stop offset="1" stop-color="#00747C"/></linearGradient></defs>
<rect width="520" height="440" rx="16" fill="#F2F9FA"/>
<g stroke="#00747C" stroke-width="7" fill="#FFFFFF" stroke-linecap="round" stroke-linejoin="round">
<path d="M215 90 h90 v70 l58 130 a20 20 0 0 1 -18 28 h-170 a20 20 0 0 1 -18 -28 l58 -130 z"/>
<path d="M186 245 h148 l29 65 a20 20 0 0 1 -18 8 h-170 a20 20 0 0 1 -18 -8 z" fill="url(#tg)" stroke="none"/>
<path d="M215 90 h90 v70 l58 130 a20 20 0 0 1 -18 28 h-170 a20 20 0 0 1 -18 -28 l58 -130 z" fill="none"/>
<line x1="200" y1="78" x2="320" y2="78" stroke-width="9"/>
</g>
<g fill="#FFFFFF"><circle cx="235" cy="278" r="9"/><circle cx="275" cy="295" r="7"/><circle cx="300" cy="270" r="6"/></g>
<g fill="#009BA5"><circle cx="255" cy="215" r="7"/><circle cx="285" cy="230" r="5"/><circle cx="240" cy="240" r="5"/></g>
<g stroke="#00747C" stroke-width="6" fill="#FFFFFF" stroke-linecap="round">
<g transform="rotate(-20 105 160)"><rect x="70" y="145" width="70" height="32" rx="16" fill="#009BA5"/><rect x="70" y="145" width="35" height="32" rx="16" fill="#FFFFFF"/></g>
<circle cx="105" cy="250" r="20" fill="#E4F6F7"/><line x1="92" y1="250" x2="118" y2="250" stroke="#009BA5" stroke-width="5"/>
<rect x="398" y="150" width="52" height="88" rx="13"/>
<rect x="398" y="192" width="52" height="46" rx="13" fill="#9ED9DE" stroke="none"/>
<rect x="398" y="150" width="52" height="88" rx="13" fill="none"/>
<rect x="409" y="130" width="30" height="18" rx="5" fill="#00747C"/>
</g>
<g stroke="#9ED9DE" stroke-width="5" stroke-linecap="round">
<line x1="120" y1="345" x2="400" y2="345"/><line x1="160" y1="368" x2="360" y2="368"/>
</g>
<circle cx="415" cy="90" r="26" fill="#E4F6F7" stroke="#009BA5" stroke-width="5"/>
<path d="M403 90 l9 9 l17 -18" stroke="#00747C" stroke-width="6" fill="none" stroke-linecap="round" stroke-linejoin="round"/>
</svg>
